# xmcd
#
# Track frame offsets: 
#        150
#        12965
#        27678
#        40057
#        54213
#        75458
#        90905
#        108701
#        124685
#        143294
#        159560
#        190938
#
# Disc length: 2942 seconds
#
# Revision: 0
# Processed by: cddbd v1.5.2PL0 Copyright (c) Steve Scherf et al.
# Submitted via: ExactAudioCopy v0.95b4
#
DISCID=8a0b7c0c
DTITLE=Cyril Cinelu - Jusqu'à moi
DYEAR=2007
DGENRE=Soul
TTITLE0=Quelque chose qui m'appartient
TTITLE1=L'autre côté de toi
TTITLE2=Ben
TTITLE3=Paradoxal
TTITLE4=Sign Your Name
TTITLE5=On prie
TTITLE6=Motown
TTITLE7=Qu'est ce que je me sens bien
TTITLE8=Une vie sans toi
TTITLE9=Would I Lie
TTITLE10=I Love the Lord
TTITLE11=Data
EXTD=
EXTT0=
EXTT1=
EXTT2=
EXTT3=
EXTT4=
EXTT5=
EXTT6=
EXTT7=
EXTT8=
EXTT9=
EXTT10=
EXTT11=
PLAYORDER=
